<svg width="80" height="80" viewBox="0 0 80 80" xmlns="http://www.w3.org/2000/svg">
  <rect width="80" height="80" rx="16" fill="#0d1117"/>
  <rect x="4" y="4" width="72" height="72" rx="13" fill="#161b22" stroke="#ff6b6b" stroke-width="1.2"/>
  <!-- Shield -->
  <path d="M40,14 L60,22 L60,42 Q60,58 40,66 Q20,58 20,42 L20,22 Z" fill="none" stroke="#ff6b6b" stroke-width="2" stroke-linejoin="round"/>
  <path d="M40,20 L55,26 L55,42 Q55,54 40,61 Q25,54 25,42 L25,26 Z" fill="#ff6b6b" opacity="0.1"/>
  <!-- Scan lines -->
  <line x1="29" y1="36" x2="51" y2="36" stroke="#ff6b6b" stroke-width="1.5" stroke-dasharray="3,2" opacity="0.7"/>
  <line x1="29" y1="42" x2="51" y2="42" stroke="#ff6b6b" stroke-width="2" opacity="1"/>
  <line x1="29" y1="48" x2="51" y2="48" stroke="#ff6b6b" stroke-width="1.5" stroke-dasharray="3,2" opacity="0.7"/>
  <!-- Magnifier -->
  <circle cx="55" cy="56" r="8" fill="none" stroke="#ffa657" stroke-width="2"/>
  <line x1="61" y1="62" x2="67" y2="68" stroke="#ffa657" stroke-width="2.5" stroke-linecap="round"/>
  <!-- Bug dot -->
  <circle cx="55" cy="56" r="3" fill="#ff6b6b"/>
</svg>
